G75*
G70*
%OFA0B0*%
%FSLAX24Y24*%
%IPPOS*%
%LPD*%
%AMOC8*
5,1,8,0,0,1.08239X$1,22.5*
%
%ADD10C,0.0000*%
%ADD11R,0.1000X0.0500*%
%ADD12R,0.0600X0.1300*%
%ADD13C,0.0669*%
%ADD14C,0.0740*%
%ADD15R,0.0472X0.0787*%
%ADD16R,0.0551X0.0394*%
%ADD17R,0.0425X0.0413*%
%ADD18R,0.0630X0.0460*%
%ADD19C,0.0160*%
%ADD20C,0.0120*%
%ADD21C,0.0079*%
%ADD22C,0.0236*%
%ADD23C,0.0080*%
%ADD24C,0.0400*%
%ADD25OC8,0.0236*%
D10*
X000750Y000969D02*
X000750Y009869D01*
X009350Y009869D01*
X009350Y000969D01*
X000750Y000969D01*
D11*
X001400Y003157D03*
X001400Y003944D03*
X001400Y004731D03*
X001400Y005519D03*
X001400Y006306D03*
X001400Y007094D03*
X001400Y007881D03*
X007700Y007881D03*
X007700Y007094D03*
X007700Y006306D03*
X007700Y005519D03*
X007700Y004731D03*
X007700Y003944D03*
X007700Y003157D03*
D12*
X003350Y001719D03*
X002350Y001719D03*
X001350Y001719D03*
D13*
X005050Y001469D03*
X005050Y009343D03*
D14*
X008450Y008969D03*
X008900Y007619D03*
X008700Y006619D03*
X008900Y005619D03*
X008700Y004619D03*
X008900Y003619D03*
X008700Y002619D03*
X008690Y001550D03*
D15*
X007480Y001619D03*
X006220Y001619D03*
D16*
X001117Y008845D03*
X001117Y009593D03*
X001983Y009219D03*
D17*
X004100Y009563D03*
X004100Y008874D03*
D18*
X004180Y002329D03*
X004180Y001729D03*
D19*
X004654Y002328D02*
X004654Y002624D01*
X004561Y002717D01*
X003799Y002717D01*
X003706Y002624D01*
X003706Y002528D01*
X003295Y002528D01*
X004353Y003585D01*
X004374Y003535D01*
X004451Y003457D01*
X004553Y003415D01*
X004663Y003415D01*
X004765Y003457D01*
X004801Y003493D01*
X006563Y003493D01*
X006540Y003471D01*
X006498Y003369D01*
X006498Y003268D01*
X005562Y002331D01*
X005536Y002331D01*
X005530Y002328D01*
X004654Y002328D01*
X004654Y002354D02*
X005585Y002354D01*
X005743Y002512D02*
X004654Y002512D01*
X004607Y002671D02*
X005902Y002671D01*
X006060Y002829D02*
X003597Y002829D01*
X003753Y002671D02*
X003439Y002671D01*
X003756Y002988D02*
X006219Y002988D01*
X006377Y003146D02*
X003914Y003146D01*
X004073Y003305D02*
X006498Y003305D01*
X006538Y003463D02*
X004771Y003463D01*
X004445Y003463D02*
X004231Y003463D01*
X003724Y004030D02*
X003724Y006170D01*
X003760Y006206D01*
X003802Y006308D01*
X003802Y006418D01*
X003792Y006441D01*
X003997Y006441D01*
X004435Y006003D01*
X004435Y005825D01*
X004434Y005825D01*
X004429Y005808D01*
X004402Y005808D01*
X004300Y005766D01*
X004222Y005688D01*
X004180Y005586D01*
X004180Y005476D01*
X004185Y005465D01*
X004179Y005413D01*
X004187Y005404D01*
X004187Y005391D01*
X004237Y005341D01*
X004282Y005285D01*
X004294Y005284D01*
X004303Y005275D01*
X004352Y005275D01*
X004402Y005254D01*
X004512Y005254D01*
X004614Y005296D01*
X004692Y005374D01*
X004734Y005476D01*
X004734Y005527D01*
X004754Y005547D01*
X004801Y005573D01*
X004810Y005603D01*
X004832Y005625D01*
X004832Y005679D01*
X004847Y005731D01*
X004832Y005759D01*
X004832Y006168D01*
X004716Y006284D01*
X004368Y006632D01*
X005862Y008126D01*
X005945Y008092D01*
X005971Y008092D01*
X006592Y007471D01*
X006544Y007471D01*
X006442Y007429D01*
X006364Y007351D01*
X006322Y007249D01*
X006322Y007198D01*
X006073Y006949D01*
X006073Y005623D01*
X006037Y005587D01*
X005994Y005485D01*
X005994Y005375D01*
X006037Y005273D01*
X006114Y005196D01*
X006216Y005153D01*
X006326Y005153D01*
X006428Y005196D01*
X006506Y005273D01*
X006548Y005375D01*
X006548Y005485D01*
X006506Y005587D01*
X006470Y005623D01*
X006470Y006784D01*
X006603Y006917D01*
X006654Y006917D01*
X006756Y006959D01*
X006834Y007037D01*
X006846Y007066D01*
X006886Y007026D01*
X007037Y006875D01*
X007041Y006875D01*
X007041Y006778D01*
X007123Y006696D01*
X007102Y006683D01*
X007073Y006654D01*
X007052Y006618D01*
X007041Y006577D01*
X007041Y006351D01*
X007655Y006351D01*
X007655Y006261D01*
X007745Y006261D01*
X008310Y006261D01*
X008252Y006319D01*
X008239Y006351D01*
X007745Y006351D01*
X007745Y006261D01*
X007745Y005928D01*
X007655Y005928D01*
X007655Y006261D01*
X007041Y006261D01*
X007041Y006035D01*
X007052Y005995D01*
X007073Y005959D01*
X007102Y005929D01*
X007123Y005917D01*
X007041Y005835D01*
X007041Y005203D01*
X007119Y005125D01*
X007041Y005047D01*
X007041Y004944D01*
X006106Y004944D01*
X005916Y005135D01*
X005799Y005251D01*
X005105Y005251D01*
X005099Y005244D01*
X005042Y005244D01*
X004940Y005202D01*
X004862Y005124D01*
X004853Y005101D01*
X004795Y005101D01*
X003724Y004030D01*
X003724Y004097D02*
X003791Y004097D01*
X003724Y004256D02*
X003950Y004256D01*
X004108Y004414D02*
X003724Y004414D01*
X003724Y004573D02*
X004267Y004573D01*
X004425Y004731D02*
X003724Y004731D01*
X003724Y004890D02*
X004584Y004890D01*
X004742Y005048D02*
X003724Y005048D01*
X003724Y005207D02*
X004952Y005207D01*
X004683Y005365D02*
X005998Y005365D01*
X006010Y005524D02*
X004734Y005524D01*
X004833Y005682D02*
X006073Y005682D01*
X006073Y005841D02*
X004832Y005841D01*
X004832Y005999D02*
X006073Y005999D01*
X006073Y006158D02*
X004832Y006158D01*
X004684Y006316D02*
X006073Y006316D01*
X006073Y006475D02*
X004525Y006475D01*
X004370Y006633D02*
X006073Y006633D01*
X006073Y006792D02*
X004528Y006792D01*
X004687Y006950D02*
X006074Y006950D01*
X006233Y007109D02*
X004845Y007109D01*
X005004Y007267D02*
X006330Y007267D01*
X006439Y007426D02*
X005162Y007426D01*
X005321Y007584D02*
X006479Y007584D01*
X006320Y007743D02*
X005479Y007743D01*
X005638Y007901D02*
X006162Y007901D01*
X006003Y008060D02*
X005796Y008060D01*
X005551Y008377D02*
X004019Y008377D01*
X004019Y008410D02*
X003919Y008509D01*
X004077Y008509D01*
X004077Y008851D01*
X004123Y008851D01*
X004123Y008509D01*
X004333Y008509D01*
X004374Y008520D01*
X004410Y008541D01*
X004440Y008570D01*
X004461Y008606D01*
X004471Y008647D01*
X004471Y008851D01*
X004123Y008851D01*
X004123Y008898D01*
X004471Y008898D01*
X004471Y009102D01*
X004461Y009142D01*
X004440Y009179D01*
X004410Y009208D01*
X004396Y009216D01*
X004471Y009291D01*
X004471Y009350D01*
X004557Y009350D01*
X004557Y009245D01*
X004632Y009063D01*
X004771Y008925D01*
X004952Y008850D01*
X005148Y008850D01*
X005192Y008868D01*
X005617Y008443D01*
X004013Y006839D01*
X003997Y006839D01*
X002458Y006839D01*
X002422Y006874D01*
X002320Y006917D01*
X002210Y006917D01*
X002108Y006874D01*
X002059Y006825D01*
X002059Y007409D01*
X001981Y007487D01*
X002059Y007565D01*
X002059Y008197D01*
X001966Y008290D01*
X000909Y008290D01*
X000909Y008489D01*
X001099Y008489D01*
X001099Y008826D01*
X001135Y008826D01*
X001135Y008489D01*
X001413Y008489D01*
X001454Y008500D01*
X001490Y008521D01*
X001520Y008551D01*
X001540Y008587D01*
X001551Y008627D01*
X001551Y008826D01*
X001135Y008826D01*
X001135Y008863D01*
X001099Y008863D01*
X001099Y009200D01*
X000909Y009200D01*
X000909Y009237D01*
X001458Y009237D01*
X001549Y009328D01*
X001549Y009072D01*
X001540Y009103D01*
X001520Y009139D01*
X001490Y009169D01*
X001454Y009190D01*
X001413Y009200D01*
X001135Y009200D01*
X001135Y008863D01*
X001551Y008863D01*
X001551Y008954D01*
X001642Y008863D01*
X002324Y008863D01*
X002417Y008956D01*
X002417Y008991D01*
X002804Y008991D01*
X003581Y008214D01*
X003581Y008142D01*
X003565Y008126D01*
X003523Y008024D01*
X003523Y007914D01*
X003565Y007812D01*
X003643Y007734D01*
X003745Y007692D01*
X003855Y007692D01*
X003957Y007734D01*
X004035Y007812D01*
X004077Y007914D01*
X004077Y008024D01*
X004035Y008126D01*
X004019Y008142D01*
X004019Y008410D01*
X004077Y008535D02*
X004123Y008535D01*
X004123Y008694D02*
X004077Y008694D01*
X004077Y008851D02*
X003729Y008851D01*
X003729Y008685D01*
X003114Y009300D01*
X003064Y009350D01*
X003703Y009350D01*
X003729Y009313D01*
X003729Y009291D01*
X003783Y009237D01*
X003792Y009224D01*
X003796Y009224D01*
X003804Y009216D01*
X003790Y009208D01*
X003760Y009179D01*
X003739Y009142D01*
X003729Y009102D01*
X003729Y008898D01*
X004077Y008898D01*
X004077Y008851D01*
X004077Y008852D02*
X003562Y008852D01*
X003720Y008694D02*
X003729Y008694D01*
X003418Y008377D02*
X000909Y008377D01*
X001099Y008535D02*
X001135Y008535D01*
X001135Y008694D02*
X001099Y008694D01*
X001135Y008852D02*
X002943Y008852D01*
X003101Y008694D02*
X001551Y008694D01*
X001504Y008535D02*
X003260Y008535D01*
X003577Y008218D02*
X002038Y008218D01*
X002059Y008060D02*
X003538Y008060D01*
X003528Y007901D02*
X002059Y007901D01*
X002059Y007743D02*
X003634Y007743D01*
X003966Y007743D02*
X004917Y007743D01*
X005075Y007901D02*
X004072Y007901D01*
X004062Y008060D02*
X005234Y008060D01*
X005392Y008218D02*
X004019Y008218D01*
X004401Y008535D02*
X005524Y008535D01*
X005366Y008694D02*
X004471Y008694D01*
X004471Y009011D02*
X004684Y009011D01*
X004588Y009169D02*
X004445Y009169D01*
X004471Y009328D02*
X004557Y009328D01*
X004206Y009463D02*
X004100Y009569D01*
X004100Y009563D01*
X004094Y009569D01*
X004094Y009524D01*
X004100Y009519D01*
X004074Y009493D01*
X004100Y009563D02*
X003930Y009443D01*
X003718Y009328D02*
X003086Y009328D01*
X003245Y009169D02*
X003755Y009169D01*
X003729Y009011D02*
X003403Y009011D01*
X004123Y008852D02*
X004945Y008852D01*
X005155Y008852D02*
X005207Y008852D01*
X005511Y009167D02*
X005543Y009245D01*
X005543Y009441D01*
X005468Y009622D01*
X005381Y009710D01*
X009191Y009710D01*
X009191Y008071D01*
X009005Y008148D01*
X008795Y008148D01*
X008600Y008067D01*
X008452Y007918D01*
X008371Y007724D01*
X008371Y007514D01*
X008452Y007319D01*
X008600Y007171D01*
X008656Y007148D01*
X008595Y007148D01*
X008400Y007067D01*
X008358Y007025D01*
X008358Y007409D01*
X008280Y007487D01*
X008358Y007565D01*
X008358Y008197D01*
X008265Y008290D01*
X008263Y008290D01*
X008419Y008440D01*
X008555Y008440D01*
X008750Y008521D01*
X008898Y008669D01*
X008979Y008864D01*
X008979Y009074D01*
X008898Y009268D01*
X008750Y009417D01*
X008555Y009498D01*
X008345Y009498D01*
X008150Y009417D01*
X008002Y009268D01*
X007921Y009074D01*
X007921Y008957D01*
X007500Y008551D01*
X007498Y008549D01*
X007449Y008501D01*
X007400Y008453D01*
X007399Y008451D01*
X007397Y008449D01*
X007370Y008385D01*
X007343Y008322D01*
X007343Y008320D01*
X007342Y008317D01*
X007342Y008290D01*
X007134Y008290D01*
X007041Y008197D01*
X007041Y007641D01*
X006277Y008405D01*
X006277Y008424D01*
X006235Y008526D01*
X006157Y008604D01*
X006055Y008646D01*
X006032Y008646D01*
X006012Y008666D01*
X005511Y009167D01*
X005512Y009169D02*
X007961Y009169D01*
X007921Y009011D02*
X005667Y009011D01*
X005826Y008852D02*
X007813Y008852D01*
X007649Y008694D02*
X005984Y008694D01*
X006225Y008535D02*
X007484Y008535D01*
X007367Y008377D02*
X006305Y008377D01*
X006463Y008218D02*
X007062Y008218D01*
X007041Y008060D02*
X006622Y008060D01*
X006780Y007901D02*
X007041Y007901D01*
X007041Y007743D02*
X006939Y007743D01*
X006962Y006950D02*
X006734Y006950D01*
X006478Y006792D02*
X007041Y006792D01*
X007061Y006633D02*
X006470Y006633D01*
X006470Y006475D02*
X007041Y006475D01*
X007041Y006158D02*
X006470Y006158D01*
X006470Y006316D02*
X007655Y006316D01*
X007655Y006351D02*
X007655Y006685D01*
X007745Y006685D01*
X007745Y006351D01*
X007655Y006351D01*
X007745Y006316D02*
X008255Y006316D01*
X008358Y006213D02*
X008400Y006171D01*
X008595Y006090D01*
X008660Y006090D01*
X008623Y006071D01*
X008556Y006022D01*
X008497Y005963D01*
X008448Y005896D01*
X008410Y005822D01*
X008384Y005743D01*
X008371Y005661D01*
X008371Y005639D01*
X008880Y005639D01*
X008880Y005599D01*
X008371Y005599D01*
X008371Y005577D01*
X008384Y005495D01*
X008410Y005416D01*
X008448Y005342D01*
X008497Y005274D01*
X008556Y005216D01*
X008623Y005167D01*
X008660Y005148D01*
X008595Y005148D01*
X008400Y005067D01*
X008358Y005025D01*
X008358Y005047D01*
X008280Y005125D01*
X008358Y005203D01*
X008358Y005835D01*
X008276Y005917D01*
X008297Y005929D01*
X008327Y005959D01*
X008348Y005995D01*
X008358Y006035D01*
X008358Y006213D01*
X008358Y006158D02*
X008431Y006158D01*
X008349Y005999D02*
X008533Y005999D01*
X008420Y005841D02*
X008352Y005841D01*
X008358Y005682D02*
X008375Y005682D01*
X008358Y005524D02*
X008380Y005524D01*
X008358Y005365D02*
X008436Y005365D01*
X008358Y005207D02*
X008568Y005207D01*
X008382Y005048D02*
X008357Y005048D01*
X007745Y005999D02*
X007655Y005999D01*
X007655Y006158D02*
X007745Y006158D01*
X007745Y006475D02*
X007655Y006475D01*
X007655Y006633D02*
X007745Y006633D01*
X008358Y007109D02*
X008501Y007109D01*
X008504Y007267D02*
X008358Y007267D01*
X008342Y007426D02*
X008408Y007426D01*
X008371Y007584D02*
X008358Y007584D01*
X008358Y007743D02*
X008379Y007743D01*
X008358Y007901D02*
X008445Y007901D01*
X008358Y008060D02*
X008593Y008060D01*
X008337Y008218D02*
X009191Y008218D01*
X009191Y008377D02*
X008353Y008377D01*
X008764Y008535D02*
X009191Y008535D01*
X009191Y008694D02*
X008908Y008694D01*
X008974Y008852D02*
X009191Y008852D01*
X009191Y009011D02*
X008979Y009011D01*
X008939Y009169D02*
X009191Y009169D01*
X009191Y009328D02*
X008839Y009328D01*
X008582Y009486D02*
X009191Y009486D01*
X009191Y009645D02*
X005446Y009645D01*
X005525Y009486D02*
X008318Y009486D01*
X008061Y009328D02*
X005543Y009328D01*
X004758Y007584D02*
X002059Y007584D01*
X002043Y007426D02*
X004600Y007426D01*
X004441Y007267D02*
X002059Y007267D01*
X002059Y007109D02*
X004283Y007109D01*
X004124Y006950D02*
X002059Y006950D01*
X002059Y006454D02*
X002108Y006405D01*
X002210Y006363D01*
X002320Y006363D01*
X002422Y006405D01*
X002458Y006441D01*
X003258Y006441D01*
X003248Y006418D01*
X003248Y006308D01*
X003290Y006206D01*
X003326Y006170D01*
X003326Y004127D01*
X003319Y004120D01*
X003268Y004120D01*
X003166Y004078D01*
X003089Y004000D01*
X003087Y003996D01*
X003054Y004075D01*
X002976Y004153D01*
X002874Y004195D01*
X002764Y004195D01*
X002662Y004153D01*
X002627Y004117D01*
X002059Y004117D01*
X002059Y004260D01*
X001981Y004338D01*
X002059Y004416D01*
X002059Y005047D01*
X001981Y005125D01*
X002059Y005203D01*
X002059Y005835D01*
X001981Y005913D01*
X002059Y005991D01*
X002059Y006454D01*
X002059Y006316D02*
X003248Y006316D01*
X003326Y006158D02*
X002059Y006158D01*
X002059Y005999D02*
X003326Y005999D01*
X003326Y005841D02*
X002053Y005841D01*
X002059Y005682D02*
X003326Y005682D01*
X003326Y005524D02*
X002059Y005524D01*
X002059Y005365D02*
X003326Y005365D01*
X003326Y005207D02*
X002059Y005207D01*
X002058Y005048D02*
X003326Y005048D01*
X003326Y004890D02*
X002059Y004890D01*
X002059Y004731D02*
X003326Y004731D01*
X003326Y004573D02*
X002059Y004573D01*
X002058Y004414D02*
X003326Y004414D01*
X003326Y004256D02*
X002059Y004256D01*
X002059Y003365D02*
X003059Y003365D01*
X002221Y002528D01*
X001984Y002528D01*
X001926Y002469D01*
X001916Y002479D01*
X001784Y002479D01*
X001774Y002469D01*
X001747Y002496D01*
X001711Y002517D01*
X001671Y002528D01*
X001420Y002528D01*
X001420Y001789D01*
X001280Y001789D01*
X001280Y002528D01*
X001029Y002528D01*
X000989Y002517D01*
X000953Y002496D01*
X000923Y002466D01*
X000909Y002442D01*
X000909Y002748D01*
X001966Y002748D01*
X002059Y002841D01*
X002059Y003365D01*
X002059Y003305D02*
X002999Y003305D01*
X002840Y003146D02*
X002059Y003146D01*
X002059Y002988D02*
X002682Y002988D01*
X002523Y002829D02*
X002048Y002829D01*
X001969Y002512D02*
X001719Y002512D01*
X001420Y002512D02*
X001280Y002512D01*
X001280Y002354D02*
X001420Y002354D01*
X001420Y002195D02*
X001280Y002195D01*
X001280Y002037D02*
X001420Y002037D01*
X001420Y001878D02*
X001280Y001878D01*
X000981Y002512D02*
X000909Y002512D01*
X000909Y002671D02*
X002365Y002671D01*
X003032Y004097D02*
X003214Y004097D01*
X003724Y005365D02*
X004213Y005365D01*
X004180Y005524D02*
X003724Y005524D01*
X003724Y005682D02*
X004220Y005682D01*
X004435Y005841D02*
X003724Y005841D01*
X003724Y005999D02*
X004435Y005999D01*
X004280Y006158D02*
X003724Y006158D01*
X003802Y006316D02*
X004121Y006316D01*
X005843Y005207D02*
X006103Y005207D01*
X006002Y005048D02*
X007042Y005048D01*
X007041Y005207D02*
X006439Y005207D01*
X006544Y005365D02*
X007041Y005365D01*
X007041Y005524D02*
X006532Y005524D01*
X006470Y005682D02*
X007041Y005682D01*
X007047Y005841D02*
X006470Y005841D01*
X006470Y005999D02*
X007051Y005999D01*
X006220Y002089D02*
X006220Y001619D01*
X005825Y001561D02*
X005535Y001561D01*
X005531Y001584D02*
X005542Y001517D01*
X005098Y001517D01*
X005098Y001421D01*
X005542Y001421D01*
X005531Y001353D01*
X005507Y001280D01*
X005472Y001210D01*
X005426Y001147D01*
X005406Y001128D01*
X005857Y001128D01*
X005825Y001159D01*
X005825Y001897D01*
X005748Y001819D01*
X005646Y001777D01*
X005536Y001777D01*
X005434Y001819D01*
X005356Y001897D01*
X005342Y001931D01*
X005225Y001931D01*
X005239Y001926D01*
X005309Y001891D01*
X005371Y001845D01*
X005426Y001790D01*
X005472Y001727D01*
X005507Y001658D01*
X005531Y001584D01*
X005476Y001720D02*
X005825Y001720D01*
X005825Y001878D02*
X005807Y001878D01*
X005375Y001878D02*
X005326Y001878D01*
X005539Y001403D02*
X005825Y001403D01*
X005825Y001244D02*
X005489Y001244D01*
X006885Y001399D02*
X007435Y001400D01*
X002004Y009115D02*
X002000Y009119D01*
X001549Y009169D02*
X001489Y009169D01*
X001167Y009543D02*
X001117Y009593D01*
X001100Y009569D02*
X001137Y009569D01*
X001135Y009169D02*
X001099Y009169D01*
X001099Y009011D02*
X001135Y009011D01*
D20*
X001137Y009569D02*
X001700Y009569D01*
X004094Y009569D01*
X004100Y009569D02*
X004824Y009569D01*
X005050Y009343D01*
X005050Y009319D01*
X005922Y008447D01*
X006000Y008369D01*
X005994Y008378D02*
X006977Y007396D01*
X006977Y007244D01*
X007128Y007094D01*
X007700Y007094D01*
X003800Y007969D02*
X003800Y008319D01*
X003786Y008319D01*
X002895Y009210D01*
X001992Y009210D01*
X001983Y009219D01*
X007259Y002659D02*
X007259Y002265D01*
X007250Y002219D02*
X007324Y002211D01*
X007338Y002222D02*
X007946Y002222D01*
X008657Y001537D01*
X007514Y001400D02*
X007480Y001619D01*
X007514Y001400D02*
X007435Y001400D01*
X007250Y002219D02*
X006350Y002219D01*
X006220Y002089D01*
D21*
X002004Y009115D02*
X001983Y009219D01*
X001137Y009569D02*
X001137Y009588D01*
X001117Y009593D01*
D22*
X002181Y007646D03*
X002265Y006640D03*
X002342Y005940D03*
X003026Y006235D03*
X003525Y006363D03*
X004457Y005531D03*
X005097Y004967D03*
X005364Y004725D03*
X006271Y005430D03*
X005789Y005933D03*
X005008Y006563D03*
X005815Y006790D03*
X006599Y007194D03*
X006923Y006891D03*
X006545Y006084D03*
X006649Y004322D03*
X006775Y003314D03*
X006147Y003388D03*
X007250Y002659D03*
X007791Y002647D03*
X008110Y002682D03*
X005591Y002054D03*
X004452Y002772D03*
X004608Y003692D03*
X003757Y004925D03*
X003323Y003843D03*
X002819Y003919D03*
X002119Y004421D03*
X001850Y002619D03*
X002870Y002541D03*
X005608Y007772D03*
X006000Y008369D03*
X005356Y008453D03*
X004701Y008730D03*
X003800Y007969D03*
X006717Y008478D03*
X007775Y008965D03*
X007926Y009443D03*
X008430Y009620D03*
X008909Y009469D03*
X009086Y008994D03*
X008925Y008471D03*
X008496Y008295D03*
D23*
X008262Y006312D02*
X007706Y006312D01*
X007700Y006306D01*
X008262Y006312D02*
X008363Y006211D01*
X008363Y006025D01*
X008342Y006025D01*
X008327Y005959D01*
X008363Y006025D02*
X008363Y005607D01*
X008375Y005619D01*
X008900Y005619D01*
X008700Y004619D02*
X008403Y004322D01*
X006649Y004322D01*
X006926Y003692D02*
X007078Y003541D01*
X008161Y003541D01*
X008237Y003541D01*
X008700Y003077D01*
X008700Y002619D01*
X008889Y002115D02*
X008322Y002115D01*
X007791Y002647D01*
X008110Y002682D02*
X008110Y003143D01*
X007720Y003143D01*
X007700Y003157D01*
X007259Y002659D02*
X007250Y002659D01*
X007259Y002265D02*
X007250Y002219D01*
X007324Y002211D02*
X007338Y002222D01*
X006800Y003289D02*
X006775Y003314D01*
X006800Y003289D02*
X005641Y002130D01*
X005515Y002130D01*
X005591Y002054D01*
X005515Y002130D02*
X004911Y002130D01*
X004860Y002130D01*
X004306Y002130D01*
X004306Y002230D01*
X004205Y002331D01*
X004203Y002329D01*
X004180Y002329D01*
X004180Y001729D02*
X003360Y001729D01*
X003350Y001719D01*
X003027Y002541D02*
X002870Y002541D01*
X003027Y002541D02*
X004484Y003997D01*
X005389Y003997D01*
X005389Y004037D01*
X005389Y004706D01*
X005364Y004725D01*
X005115Y004980D02*
X005188Y005052D01*
X005717Y005052D01*
X006024Y004745D01*
X007693Y004745D01*
X007700Y004731D01*
X007653Y003997D02*
X007693Y003958D01*
X007700Y003944D01*
X007633Y003997D01*
X005389Y003997D01*
X004608Y003692D02*
X006926Y003692D01*
X006271Y005430D02*
X006271Y006867D01*
X006599Y007194D01*
X006000Y008369D02*
X005994Y008375D01*
X005994Y008378D01*
X005922Y008447D02*
X005881Y008407D01*
X005862Y008407D01*
X004110Y006655D01*
X004079Y006640D01*
X004633Y006085D01*
X004633Y005707D01*
X004602Y005690D01*
X004385Y005474D01*
X004457Y005531D01*
X004878Y004903D02*
X005015Y004903D01*
X005055Y004942D01*
X005097Y004967D01*
X005114Y004981D01*
X005115Y004980D01*
X005087Y004952D01*
X004878Y004903D02*
X002378Y002403D01*
X002378Y001773D01*
X002350Y001719D01*
X002358Y001733D01*
X002366Y001733D01*
X002366Y001701D01*
X001400Y003157D02*
X001433Y003190D01*
X001807Y003564D01*
X003007Y003564D01*
X003263Y003820D01*
X003323Y003843D01*
X003303Y003820D01*
X003323Y003843D02*
X003525Y004044D01*
X003525Y006363D01*
X004079Y006640D02*
X002265Y006640D01*
X004100Y008874D02*
X004110Y008879D01*
X004077Y008898D01*
X002819Y003919D02*
X001426Y003919D01*
X001400Y003944D01*
X001406Y003163D02*
X001400Y003157D01*
X008657Y001537D02*
X008696Y001517D01*
X008690Y001550D01*
X008889Y002115D02*
X009208Y002434D01*
X009208Y003604D01*
X008925Y003604D01*
X008900Y003619D01*
D24*
X007700Y007881D02*
X007700Y008245D01*
X008450Y008969D01*
D25*
X006885Y001399D03*
M02*
