G75*
G70*
%OFA0B0*%
%FSLAX24Y24*%
%IPPOS*%
%LPD*%
%AMOC8*
5,1,8,0,0,1.08239X$1,22.5*
%
%ADD10C,0.0000*%
%ADD11R,0.1059X0.0559*%
%ADD12R,0.0659X0.1359*%
%ADD13R,0.2900X0.1600*%
%ADD14C,0.0728*%
%ADD15C,0.0799*%
%ADD16R,0.0531X0.0846*%
%ADD17R,0.0610X0.0453*%
%ADD18R,0.0484X0.0472*%
%ADD19R,0.0689X0.0519*%
%ADD20R,0.0720X0.0060*%
D10*
X000750Y000969D02*
X000750Y009869D01*
X009350Y009869D01*
X009350Y000969D01*
X000750Y000969D01*
D11*
X001400Y003157D03*
X001400Y003944D03*
X001400Y004731D03*
X001400Y005519D03*
X001400Y006306D03*
X001400Y007094D03*
X001400Y007881D03*
X007700Y007881D03*
X007700Y007094D03*
X007700Y006306D03*
X007700Y005519D03*
X007700Y004731D03*
X007700Y003944D03*
X007700Y003157D03*
D12*
X003350Y001719D03*
X002350Y001719D03*
X001350Y001719D03*
D13*
X002350Y001719D03*
D14*
X005050Y001469D03*
X005050Y009343D03*
D15*
X008450Y008969D03*
X008900Y007619D03*
X008700Y006619D03*
X008900Y005619D03*
X008700Y004619D03*
X008900Y003619D03*
X008700Y002619D03*
X008690Y001550D03*
D16*
X007480Y001619D03*
X006220Y001619D03*
D17*
X001117Y008845D03*
X001117Y009593D03*
X001983Y009219D03*
D18*
X004100Y009563D03*
X004100Y008874D03*
D19*
X004180Y002329D03*
X004180Y001729D03*
D20*
X004180Y002029D03*
M02*
