G75*
G70*
%OFA0B0*%
%FSLAX24Y24*%
%IPPOS*%
%LPD*%
%AMOC8*
5,1,8,0,0,1.08239X$1,22.5*
%
%ADD10C,0.0000*%
%ADD11C,0.0050*%
%ADD12C,0.0060*%
%ADD13C,0.0080*%
D10*
X000750Y000969D02*
X000750Y009869D01*
X009350Y009869D01*
X009350Y000969D01*
X000750Y000969D01*
D11*
X000950Y001019D02*
X003750Y001019D01*
X001597Y002763D02*
X007503Y002763D01*
X004050Y004019D02*
X004050Y006019D01*
X004056Y006077D01*
X004059Y006135D01*
X004058Y006193D01*
X004052Y006251D01*
X004044Y006309D01*
X004031Y006366D01*
X004014Y006421D01*
X003994Y006476D01*
X003971Y006529D01*
X003944Y006581D01*
X003913Y006630D01*
X003879Y006678D01*
X003843Y006723D01*
X003803Y006766D01*
X003761Y006806D01*
X003716Y006843D01*
X003669Y006877D01*
X003620Y006908D01*
X003568Y006936D01*
X003515Y006960D01*
X003461Y006980D01*
X003405Y006997D01*
X003349Y007011D01*
X003291Y007020D01*
X003233Y007026D01*
X003175Y007028D01*
X003117Y007026D01*
X003059Y007020D01*
X003001Y007011D01*
X002945Y006997D01*
X002889Y006980D01*
X002835Y006960D01*
X002782Y006936D01*
X002730Y006908D01*
X002681Y006877D01*
X002634Y006843D01*
X002589Y006806D01*
X002547Y006766D01*
X002507Y006723D01*
X002471Y006678D01*
X002437Y006630D01*
X002406Y006581D01*
X002379Y006529D01*
X002356Y006476D01*
X002336Y006421D01*
X002319Y006366D01*
X002306Y006309D01*
X002298Y006251D01*
X002292Y006193D01*
X002291Y006135D01*
X002294Y006077D01*
X002300Y006019D01*
X002300Y004019D01*
X002302Y003961D01*
X002308Y003902D01*
X002318Y003845D01*
X002331Y003788D01*
X002348Y003732D01*
X002369Y003677D01*
X002394Y003624D01*
X002422Y003573D01*
X002454Y003524D01*
X002488Y003477D01*
X002526Y003432D01*
X002567Y003390D01*
X002610Y003351D01*
X002656Y003315D01*
X002704Y003281D01*
X002754Y003252D01*
X002807Y003225D01*
X002861Y003202D01*
X002916Y003183D01*
X002972Y003168D01*
X003029Y003156D01*
X003087Y003148D01*
X003146Y003144D01*
X003204Y003144D01*
X003263Y003148D01*
X003321Y003156D01*
X003378Y003168D01*
X003434Y003183D01*
X003489Y003202D01*
X003543Y003225D01*
X003596Y003252D01*
X003646Y003281D01*
X003694Y003315D01*
X003740Y003351D01*
X003783Y003390D01*
X003824Y003432D01*
X003862Y003477D01*
X003896Y003524D01*
X003928Y003573D01*
X003956Y003624D01*
X003981Y003677D01*
X004002Y003732D01*
X004019Y003788D01*
X004032Y003845D01*
X004042Y003902D01*
X004048Y003961D01*
X004050Y004019D01*
X001597Y008275D02*
X007503Y008275D01*
D12*
X007186Y007876D02*
X007073Y007989D01*
X006959Y007876D01*
X006959Y007649D01*
X006959Y007819D02*
X007186Y007819D01*
X007186Y007876D02*
X007186Y007649D01*
X007125Y007239D02*
X007125Y007012D01*
X007012Y006899D01*
X006898Y007012D01*
X006898Y007239D01*
X006757Y007182D02*
X006757Y006956D01*
X006700Y006899D01*
X006586Y006899D01*
X006530Y006956D01*
X006388Y006956D02*
X006332Y006899D01*
X006218Y006899D01*
X006161Y006956D01*
X006161Y007182D02*
X006218Y007239D01*
X006332Y007239D01*
X006388Y007182D01*
X006388Y006956D01*
X006530Y007182D02*
X006586Y007239D01*
X006700Y007239D01*
X006757Y007182D01*
X006818Y007649D02*
X006818Y007876D01*
X006648Y007876D01*
X006591Y007819D01*
X006591Y007649D01*
X006393Y007706D02*
X006336Y007649D01*
X006393Y007706D02*
X006393Y007932D01*
X006450Y007876D02*
X006336Y007876D01*
X006204Y007706D02*
X006147Y007706D01*
X006147Y007649D01*
X006204Y007649D01*
X006204Y007706D01*
X006218Y006489D02*
X006388Y006489D01*
X006388Y006149D01*
X006218Y006149D01*
X006161Y006206D01*
X006161Y006432D01*
X006218Y006489D01*
X006530Y006489D02*
X006530Y006149D01*
X006757Y006489D01*
X006757Y006149D01*
X006898Y006206D02*
X006898Y006319D01*
X007012Y006319D01*
X007125Y006206D02*
X007068Y006149D01*
X006955Y006149D01*
X006898Y006206D01*
X006898Y006432D02*
X006955Y006489D01*
X007068Y006489D01*
X007125Y006432D01*
X007125Y006206D01*
X004480Y002679D02*
X003880Y002679D01*
X003863Y002677D01*
X003846Y002673D01*
X003830Y002666D01*
X003816Y002656D01*
X003803Y002643D01*
X003793Y002629D01*
X003786Y002613D01*
X003782Y002596D01*
X003780Y002579D01*
X003780Y001479D01*
X003782Y001462D01*
X003786Y001445D01*
X003793Y001429D01*
X003803Y001415D01*
X003816Y001402D01*
X003830Y001392D01*
X003846Y001385D01*
X003863Y001381D01*
X003880Y001379D01*
X004480Y001379D01*
X004497Y001381D01*
X004514Y001385D01*
X004530Y001392D01*
X004544Y001402D01*
X004557Y001415D01*
X004567Y001429D01*
X004574Y001445D01*
X004578Y001462D01*
X004580Y001479D01*
X004580Y002579D01*
X004578Y002596D01*
X004574Y002613D01*
X004567Y002629D01*
X004557Y002643D01*
X004544Y002656D01*
X004530Y002666D01*
X004514Y002673D01*
X004497Y002677D01*
X004480Y002679D01*
X001810Y008659D02*
X001490Y008659D01*
X001810Y008659D02*
X001810Y008879D01*
X001810Y009559D02*
X001810Y009779D01*
X001490Y009779D01*
D13*
X006220Y002131D02*
X007480Y002131D01*
X007480Y001107D02*
X006220Y001107D01*
M02*
