%
M48
M72
T01C0.0118
T02C0.0400
T03C0.0512
%
T01
X1850Y2619
X2870Y2541
X3323Y3843
X2819Y3919
X2119Y4421
X2342Y5940
X2265Y6640
X3026Y6235
X3525Y6363
X4457Y5531
X5097Y4967
X5364Y4725
X6271Y5430
X5789Y5933
X5008Y6563
X5815Y6790
X6599Y7194
X6923Y6891
X6545Y6084
X6649Y4322
X6775Y3314
X6147Y3388
X7250Y2659
X7791Y2647
X8110Y2682
X6885Y1399
X5591Y2054
X4452Y2772
X4608Y3692
X3757Y4925
X2181Y7646
X3800Y7969
X4701Y8730
X5356Y8453
X6000Y8369
X5608Y7772
X6717Y8478
X7775Y8965
X7926Y9443
X8430Y9620
X8909Y9469
X9086Y8994
X8925Y8471
X8496Y8295
T02
X8450Y8969
X8900Y7619
X8700Y6619
X8900Y5619
X8700Y4619
X8900Y3619
X8700Y2619
X8690Y1550
T03
X5050Y1469
X5050Y9343
M30
