G75*
G70*
%OFA0B0*%
%FSLAX24Y24*%
%IPPOS*%
%LPD*%
%AMOC8*
5,1,8,0,0,1.08239X$1,22.5*
%
%ADD10C,0.0000*%
%ADD11C,0.0020*%
%ADD12C,0.0030*%
%ADD13C,0.0080*%
%ADD14C,0.0050*%
%ADD15C,0.0220*%
%ADD16C,0.0060*%
%ADD17R,0.0160X0.0280*%
%ADD18C,0.0160*%
%ADD19R,0.0280X0.0160*%
D10*
X000750Y000969D02*
X000750Y009869D01*
X009350Y009869D01*
X009350Y000969D01*
X000750Y000969D01*
D11*
X002986Y002554D02*
X003059Y002554D01*
X003022Y002554D02*
X003022Y002775D01*
X002986Y002775D02*
X003059Y002775D01*
X003133Y002738D02*
X003133Y002701D01*
X003170Y002665D01*
X003243Y002665D01*
X003280Y002628D01*
X003280Y002591D01*
X003243Y002554D01*
X003170Y002554D01*
X003133Y002591D01*
X003133Y002738D02*
X003170Y002775D01*
X003243Y002775D01*
X003280Y002738D01*
X003354Y002775D02*
X003464Y002775D01*
X003501Y002738D01*
X003501Y002665D01*
X003464Y002628D01*
X003354Y002628D01*
X003354Y002554D02*
X003354Y002775D01*
X003796Y002701D02*
X003869Y002775D01*
X003869Y002554D01*
X003796Y002554D02*
X003943Y002554D01*
X007264Y001366D02*
X007264Y001329D01*
X007301Y001292D01*
X007374Y001292D01*
X007411Y001255D01*
X007411Y001219D01*
X007374Y001182D01*
X007301Y001182D01*
X007264Y001219D01*
X007264Y001366D02*
X007301Y001402D01*
X007374Y001402D01*
X007411Y001366D01*
X007485Y001329D02*
X007558Y001329D01*
X007522Y001366D02*
X007522Y001219D01*
X007558Y001182D01*
X007632Y001219D02*
X007632Y001292D01*
X007669Y001329D01*
X007742Y001329D01*
X007779Y001292D01*
X007779Y001255D01*
X007632Y001255D01*
X007632Y001219D02*
X007669Y001182D01*
X007742Y001182D01*
X007853Y001182D02*
X007963Y001182D01*
X008000Y001219D01*
X008000Y001292D01*
X007963Y001329D01*
X007853Y001329D01*
X007853Y001109D01*
X008074Y001292D02*
X008221Y001292D01*
X008295Y001329D02*
X008295Y001219D01*
X008332Y001182D01*
X008442Y001182D01*
X008442Y001329D01*
X008516Y001329D02*
X008626Y001329D01*
X008663Y001292D01*
X008663Y001219D01*
X008626Y001182D01*
X008516Y001182D01*
X008516Y001109D02*
X008516Y001329D01*
D12*
X008160Y002422D02*
X007967Y002422D01*
X008160Y002615D01*
X008160Y002664D01*
X008112Y002712D01*
X008015Y002712D01*
X007967Y002664D01*
X007866Y002664D02*
X007817Y002712D01*
X007672Y002712D01*
X007672Y002422D01*
X007817Y002422D01*
X007866Y002470D01*
X007866Y002664D01*
X007876Y003480D02*
X007876Y003673D01*
X007972Y003770D01*
X008069Y003673D01*
X008069Y003480D01*
X008170Y003528D02*
X008170Y003577D01*
X008219Y003625D01*
X008316Y003625D01*
X008364Y003577D01*
X008364Y003528D01*
X008316Y003480D01*
X008219Y003480D01*
X008170Y003528D01*
X008219Y003625D02*
X008170Y003673D01*
X008170Y003722D01*
X008219Y003770D01*
X008316Y003770D01*
X008364Y003722D01*
X008364Y003673D01*
X008316Y003625D01*
X008069Y003625D02*
X007876Y003625D01*
X007775Y003770D02*
X007581Y003480D01*
X007480Y003528D02*
X007432Y003480D01*
X007335Y003480D01*
X007286Y003528D01*
X007286Y003577D01*
X007335Y003625D01*
X007432Y003625D01*
X007480Y003577D01*
X007480Y003528D01*
X007432Y003625D02*
X007480Y003673D01*
X007480Y003722D01*
X007432Y003770D01*
X007335Y003770D01*
X007286Y003722D01*
X007286Y003673D01*
X007335Y003625D01*
X007185Y003528D02*
X007185Y003722D01*
X007137Y003770D01*
X006992Y003770D01*
X006992Y003480D01*
X007137Y003480D01*
X007185Y003528D01*
X007391Y004211D02*
X007488Y004307D01*
X007488Y004501D01*
X007589Y004453D02*
X007589Y004259D01*
X007637Y004211D01*
X007734Y004211D01*
X007782Y004259D01*
X007883Y004259D02*
X007932Y004211D01*
X008029Y004211D01*
X008077Y004259D01*
X007883Y004259D02*
X007883Y004453D01*
X007932Y004501D01*
X008029Y004501D01*
X008077Y004453D01*
X007782Y004453D02*
X007734Y004501D01*
X007637Y004501D01*
X007589Y004453D01*
X007294Y004501D02*
X007294Y004307D01*
X007391Y004211D01*
X007418Y005370D02*
X007370Y005418D01*
X007370Y005612D01*
X007418Y005660D01*
X007515Y005660D01*
X007563Y005612D01*
X007563Y005515D02*
X007466Y005515D01*
X007563Y005515D02*
X007563Y005418D01*
X007515Y005370D01*
X007418Y005370D01*
X007664Y005370D02*
X007664Y005660D01*
X007858Y005370D01*
X007858Y005660D01*
X007959Y005660D02*
X008104Y005660D01*
X008153Y005612D01*
X008153Y005418D01*
X008104Y005370D01*
X007959Y005370D01*
X007959Y005660D01*
X007959Y006453D02*
X007765Y006453D01*
X007862Y006453D02*
X007862Y006743D01*
X007765Y006647D01*
X007664Y006695D02*
X007616Y006743D01*
X007471Y006743D01*
X007471Y006453D01*
X007616Y006453D01*
X007664Y006502D01*
X007664Y006695D01*
X008060Y006695D02*
X008108Y006743D01*
X008205Y006743D01*
X008253Y006695D01*
X008253Y006647D01*
X008205Y006598D01*
X008253Y006550D01*
X008253Y006502D01*
X008205Y006453D01*
X008108Y006453D01*
X008060Y006502D01*
X008157Y006598D02*
X008205Y006598D01*
X008114Y007436D02*
X008017Y007533D01*
X008017Y007726D01*
X007916Y007726D02*
X007722Y007726D01*
X007722Y007581D01*
X007819Y007629D01*
X007868Y007629D01*
X007916Y007581D01*
X007916Y007484D01*
X007868Y007436D01*
X007771Y007436D01*
X007722Y007484D01*
X008114Y007436D02*
X008211Y007533D01*
X008211Y007726D01*
X007907Y009210D02*
X007845Y009210D01*
X007845Y009272D01*
X007907Y009272D01*
X007907Y009210D01*
X007723Y009210D02*
X007661Y009272D01*
X007661Y009518D01*
X007600Y009457D02*
X007723Y009457D01*
X007478Y009395D02*
X007478Y009210D01*
X007478Y009395D02*
X007417Y009457D01*
X007231Y009457D01*
X007231Y009210D01*
X007110Y009210D02*
X007110Y009457D01*
X006986Y009580D01*
X006863Y009457D01*
X006863Y009210D01*
X006863Y009395D02*
X007110Y009395D01*
X006623Y009019D02*
X006623Y008958D01*
X006561Y008896D01*
X006623Y008834D01*
X006623Y008772D01*
X006561Y008711D01*
X006438Y008711D01*
X006376Y008772D01*
X006500Y008896D02*
X006561Y008896D01*
X006623Y009019D02*
X006561Y009081D01*
X006438Y009081D01*
X006376Y009019D01*
X006255Y009081D02*
X006255Y008834D01*
X006131Y008711D01*
X006008Y008834D01*
X006008Y009081D01*
X005886Y009019D02*
X005886Y008958D01*
X005825Y008896D01*
X005886Y008834D01*
X005886Y008772D01*
X005825Y008711D01*
X005701Y008711D01*
X005640Y008772D01*
X005518Y008896D02*
X005271Y008896D01*
X005395Y009019D02*
X005395Y008772D01*
X005640Y009019D02*
X005701Y009081D01*
X005825Y009081D01*
X005886Y009019D01*
X005825Y008896D02*
X005763Y008896D01*
X003434Y007978D02*
X003289Y007978D01*
X003241Y007930D01*
X003289Y007882D01*
X003434Y007882D01*
X003434Y007785D02*
X003241Y007785D01*
X003241Y007833D01*
X003289Y007882D01*
X003289Y007684D02*
X003241Y007635D01*
X003241Y007539D01*
X003289Y007490D01*
X003386Y007490D01*
X003434Y007539D01*
X003434Y007635D01*
X003386Y007684D01*
X003289Y007684D01*
X003241Y007389D02*
X003241Y007244D01*
X003289Y007196D01*
X003386Y007196D01*
X003434Y007244D01*
X003434Y007389D01*
X003434Y007097D02*
X003386Y007097D01*
X003386Y007048D01*
X003434Y007048D01*
X003434Y007097D01*
X003241Y006947D02*
X003434Y006850D01*
X003241Y006754D01*
X003289Y006652D02*
X003241Y006604D01*
X003241Y006507D01*
X003289Y006459D01*
X003386Y006459D01*
X003434Y006507D01*
X003434Y006604D01*
X003386Y006652D01*
X003289Y006652D01*
X003289Y006358D02*
X003434Y006358D01*
X003434Y006164D02*
X003241Y006164D01*
X003241Y006309D01*
X003289Y006358D01*
X003289Y006063D02*
X003434Y006063D01*
X003434Y005918D01*
X003386Y005870D01*
X003337Y005918D01*
X003337Y006063D01*
X003289Y006063D02*
X003241Y006015D01*
X003241Y005918D01*
X003241Y005768D02*
X003434Y005575D01*
X003434Y005768D01*
X003241Y005768D02*
X003241Y005575D01*
X003241Y005427D02*
X003434Y005427D01*
X003434Y005475D02*
X003434Y005378D01*
X003241Y005378D02*
X003241Y005427D01*
X003144Y005427D02*
X003096Y005427D01*
X003241Y005278D02*
X003241Y005230D01*
X003337Y005133D01*
X003241Y005133D02*
X003434Y005133D01*
X003434Y005032D02*
X003434Y004887D01*
X003386Y004838D01*
X003337Y004887D01*
X003337Y005032D01*
X003289Y005032D02*
X003434Y005032D01*
X003289Y005032D02*
X003241Y004983D01*
X003241Y004887D01*
X003289Y004737D02*
X003434Y004737D01*
X003289Y004737D02*
X003241Y004689D01*
X003241Y004592D01*
X003289Y004544D01*
X003144Y004544D02*
X003434Y004544D01*
X003434Y004249D02*
X003144Y004442D01*
X002930Y004640D02*
X002737Y004737D01*
X002688Y004838D02*
X002640Y004887D01*
X002640Y004983D01*
X002688Y005032D01*
X002737Y005032D01*
X002930Y004838D01*
X002930Y005032D01*
X002930Y004640D02*
X002737Y004544D01*
X002737Y004148D02*
X002979Y004148D01*
X003027Y004099D01*
X003027Y004051D01*
X002930Y004003D02*
X002930Y004148D01*
X002930Y004003D02*
X002882Y003954D01*
X002737Y003954D01*
X002737Y003854D02*
X002834Y003709D01*
X002930Y003854D01*
X002930Y003709D02*
X002640Y003709D01*
X002785Y003608D02*
X002930Y003608D01*
X002785Y003608D02*
X002737Y003559D01*
X002737Y003414D01*
X002930Y003414D01*
X002930Y003313D02*
X002737Y003313D01*
X002930Y003313D02*
X002930Y003168D01*
X002882Y003119D01*
X002737Y003119D01*
X002640Y003018D02*
X002640Y002825D01*
X002930Y002825D01*
X002785Y002825D02*
X002785Y002922D01*
X003144Y002825D02*
X003434Y002825D01*
X003289Y002825D02*
X003241Y002873D01*
X003241Y002970D01*
X003289Y003018D01*
X003434Y003018D01*
X003386Y003168D02*
X003434Y003216D01*
X003386Y003168D02*
X003192Y003168D01*
X003241Y003216D02*
X003241Y003119D01*
X003241Y003316D02*
X003241Y003413D01*
X003192Y003364D02*
X003386Y003364D01*
X003434Y003413D01*
X003434Y003512D02*
X003434Y003657D01*
X003386Y003706D01*
X003289Y003706D01*
X003241Y003657D01*
X003241Y003512D01*
X003531Y003512D01*
X003434Y003807D02*
X003386Y003807D01*
X003386Y003855D01*
X003434Y003855D01*
X003434Y003807D01*
X003434Y003954D02*
X003144Y004148D01*
X003241Y003855D02*
X003289Y003855D01*
X003289Y003807D01*
X003241Y003807D01*
X003241Y003855D01*
X004674Y002255D02*
X004612Y002194D01*
X004612Y001947D01*
X004674Y001885D01*
X004797Y001885D01*
X004859Y001947D01*
X004859Y002070D01*
X004735Y002070D01*
X004859Y002194D02*
X004797Y002255D01*
X004674Y002255D01*
X004980Y002255D02*
X005227Y001885D01*
X005227Y002255D01*
X005349Y002255D02*
X005534Y002255D01*
X005596Y002194D01*
X005596Y001947D01*
X005534Y001885D01*
X005349Y001885D01*
X005349Y002255D01*
X004980Y002255D02*
X004980Y001885D01*
D13*
X004285Y002894D02*
X004104Y002894D01*
X004012Y003016D01*
X003923Y002894D02*
X004104Y002894D01*
X004114Y002900D02*
X004190Y003016D01*
X005389Y003932D02*
X005500Y003820D01*
X005611Y003932D01*
X005515Y004322D02*
X005541Y004347D01*
X006977Y005783D01*
X006952Y005783D01*
X005515Y007219D01*
X005490Y007219D01*
X004054Y005783D01*
X005515Y004322D01*
X005457Y004380D02*
X005574Y004380D01*
X005652Y004458D02*
X005379Y004458D01*
X005300Y004537D02*
X005731Y004537D01*
X005809Y004615D02*
X005222Y004615D01*
X005143Y004694D02*
X005888Y004694D01*
X005966Y004772D02*
X005065Y004772D01*
X004986Y004851D02*
X006045Y004851D01*
X006123Y004929D02*
X004908Y004929D01*
X004829Y005008D02*
X006202Y005008D01*
X006280Y005086D02*
X004751Y005086D01*
X004672Y005165D02*
X006359Y005165D01*
X006437Y005243D02*
X004594Y005243D01*
X004515Y005322D02*
X006516Y005322D01*
X006594Y005400D02*
X004437Y005400D01*
X004358Y005479D02*
X006673Y005479D01*
X006751Y005557D02*
X004280Y005557D01*
X004201Y005636D02*
X006830Y005636D01*
X006908Y005714D02*
X004123Y005714D01*
X004064Y005793D02*
X006942Y005793D01*
X006863Y005871D02*
X004142Y005871D01*
X004221Y005950D02*
X006785Y005950D01*
X006706Y006028D02*
X004299Y006028D01*
X004378Y006107D02*
X006628Y006107D01*
X006549Y006185D02*
X004456Y006185D01*
X004535Y006264D02*
X006471Y006264D01*
X006392Y006342D02*
X004613Y006342D01*
X004692Y006421D02*
X006314Y006421D01*
X006235Y006499D02*
X004770Y006499D01*
X004849Y006578D02*
X006157Y006578D01*
X006078Y006656D02*
X004927Y006656D01*
X005006Y006735D02*
X006000Y006735D01*
X005921Y006813D02*
X005084Y006813D01*
X005163Y006892D02*
X005843Y006892D01*
X005764Y006970D02*
X005241Y006970D01*
X005320Y007049D02*
X005686Y007049D01*
X005607Y007127D02*
X005398Y007127D01*
X005477Y007206D02*
X005529Y007206D01*
X005639Y007578D02*
X005361Y007578D01*
X006625Y008949D02*
X006625Y010130D01*
X003475Y010130D01*
X003475Y008949D01*
X003516Y008748D02*
X001784Y008748D01*
X001784Y008197D01*
X001311Y008197D01*
X001311Y008827D01*
X001311Y009890D02*
X003989Y009890D01*
X003989Y008827D02*
X003989Y008197D01*
X003516Y008197D01*
X003516Y008748D01*
X003663Y005880D02*
X003551Y005769D01*
X003663Y005658D01*
X002530Y004755D02*
X002530Y004283D01*
X002018Y003535D02*
X001782Y003535D01*
X001270Y004283D02*
X001270Y004755D01*
X001782Y005503D02*
X002018Y005503D01*
X003475Y008949D02*
X003285Y008867D01*
X003099Y008776D01*
X002917Y008676D01*
X002741Y008568D01*
X002570Y008451D01*
X002405Y008326D01*
X002246Y008192D01*
X002094Y008052D01*
X001949Y007904D01*
X001811Y007749D01*
X001682Y007587D01*
X001560Y007420D01*
X001446Y007246D01*
X001342Y007068D01*
X001246Y006884D01*
X001159Y006696D01*
X001081Y006504D01*
X001013Y006308D01*
X000954Y006109D01*
X000906Y005908D01*
X000867Y005704D01*
X000838Y005499D01*
X000819Y005293D01*
X000811Y005086D01*
X000812Y004879D01*
X000824Y004672D01*
X000845Y004466D01*
X000877Y004261D01*
X000919Y004058D01*
X000970Y003857D01*
X001031Y003660D01*
X001102Y003465D01*
X001183Y003274D01*
X001272Y003087D01*
X001371Y002905D01*
X001478Y002728D01*
X001594Y002556D01*
X001718Y002390D01*
X001850Y002230D01*
X001990Y002077D01*
X002137Y001931D01*
X002291Y001793D01*
X002451Y001662D01*
X002618Y001539D01*
X002791Y001424D01*
X002969Y001318D01*
X003152Y001221D01*
X003339Y001133D01*
X003531Y001054D01*
X003726Y000984D01*
X003924Y000924D01*
X004125Y000874D01*
X004328Y000834D01*
X004533Y000804D01*
X004739Y000783D01*
X004946Y000773D01*
X005154Y000773D01*
X005361Y000783D01*
X005567Y000804D01*
X005772Y000834D01*
X005975Y000874D01*
X006176Y000924D01*
X006374Y000984D01*
X006569Y001054D01*
X006761Y001133D01*
X006948Y001221D01*
X007131Y001318D01*
X007309Y001424D01*
X007482Y001539D01*
X007649Y001662D01*
X007809Y001793D01*
X007963Y001931D01*
X008110Y002077D01*
X008250Y002230D01*
X008382Y002390D01*
X008506Y002556D01*
X008622Y002728D01*
X008729Y002905D01*
X008828Y003087D01*
X008917Y003274D01*
X008998Y003465D01*
X009069Y003660D01*
X009130Y003857D01*
X009181Y004058D01*
X009223Y004261D01*
X009255Y004466D01*
X009276Y004672D01*
X009288Y004879D01*
X009289Y005086D01*
X009281Y005293D01*
X009262Y005499D01*
X009233Y005704D01*
X009194Y005908D01*
X009146Y006109D01*
X009087Y006308D01*
X009019Y006504D01*
X008941Y006696D01*
X008854Y006884D01*
X008758Y007068D01*
X008654Y007246D01*
X008540Y007420D01*
X008418Y007587D01*
X008289Y007749D01*
X008151Y007904D01*
X008006Y008052D01*
X007854Y008192D01*
X007695Y008326D01*
X007530Y008451D01*
X007359Y008568D01*
X007183Y008676D01*
X007001Y008776D01*
X006815Y008867D01*
X006625Y008949D01*
X007950Y008719D02*
X008200Y008469D01*
X008700Y008469D01*
X008950Y008719D01*
X008950Y009219D01*
X008700Y009469D01*
X008200Y009469D01*
X007950Y009219D01*
X007950Y008719D01*
X008300Y008119D02*
X008300Y002119D01*
X009300Y002119D01*
X009300Y008119D01*
X008300Y008119D01*
X007337Y005880D02*
X007449Y005769D01*
X007337Y005658D01*
X008440Y002050D02*
X008190Y001800D01*
X008190Y001300D01*
X008440Y001050D01*
X008940Y001050D01*
X009190Y001300D01*
X009190Y001800D01*
X008940Y002050D01*
X008440Y002050D01*
D14*
X003750Y001019D02*
X000950Y001019D01*
D15*
X005300Y002707D02*
X005300Y002731D01*
D16*
X005932Y001705D02*
X006168Y001705D01*
X006168Y001233D02*
X005932Y001233D01*
D17*
X005287Y003285D03*
X001650Y006669D03*
D18*
X001639Y007242D02*
X001639Y007266D01*
X001650Y005931D02*
X001650Y005907D01*
X002100Y003081D02*
X002100Y003057D01*
X007500Y007957D02*
X007500Y007981D01*
D19*
X003050Y007419D03*
X002600Y007419D03*
M02*
